# xmcd
#
# Track frame offsets:
#	150
#	18601
#	39377
#	60978
#	81754
#	106430
#	125931
#	150982
#	164783
#	182559
#	198835
#	222311
#
# Disc length: 3102 seconds
# Revision: 0
# Processed by: cddbd v1.5.2PL0 Copyright (c) Steve Scherf et al.
# Submitted via: dBpowerAMP V12.0
#
DISCID=a10c1c0c
DTITLE=Buddy Flettt - Rough Edges
DYEAR=2013
DGENRE=Blues
TTITLE0=Train
TTITLE1=Third House From the Left
TTITLE2=Honky Tonk
TTITLE3=Tenaha
TTITLE4=Born in Mississippi
TTITLE5=First You Cry
TTITLE6=Good To You Baby
TTITLE7=Dance for Me Girl
TTITLE8=Little Martha
TTITLE9=Ain't Nothing Easy
TTITLE10=Bad Luck and Trouble
TTITLE11=Sylvie
EXTD=
EXTT0=
EXTT1=
EXTT2=
EXTT3=
EXTT4=
EXTT5=
EXTT6=
EXTT7=
EXTT8=
EXTT9=
EXTT10=
EXTT11=
PLAYORDER=
